<?xml version="1.0" encoding="UTF-8"?>
<!DOCTYPE svg PUBLIC "-//W3C//DTD SVG 1.1//EN" "http://www.w3.org/Graphics/SVG/1.1/DTD/svg11.dtd">
<!-- Creator: CorelDRAW X7 -->
<svg xmlns="http://www.w3.org/2000/svg" xml:space="preserve" width="27mm" height="27mm" version="1.1" style="shape-rendering:geometricPrecision; text-rendering:geometricPrecision; image-rendering:optimizeQuality; fill-rule:evenodd; clip-rule:evenodd"
viewBox="0 0 2700 2700"
 xmlns:xlink="http://www.w3.org/1999/xlink">
 <defs>
  <style type="text/css">
   <![CDATA[
    .str0 {stroke:#990000;stroke-width:33.87;stroke-linecap:round;stroke-linejoin:round}
    .fil2 {fill:none;fill-rule:nonzero}
    .fil1 {fill:black;fill-rule:nonzero}
    .fil3 {fill:white;fill-rule:nonzero}
    .fil0 {fill:url(#id0)}
    .fil4 {fill:url(#id1)}
   ]]>
  </style>
  <linearGradient id="id0" gradientUnits="userSpaceOnUse" x1="483.96" y1="2324.42" x2="2220.68" y2="332.827">
   <stop offset="0" style="stop-opacity:1; stop-color:#990000"/>
   <stop offset="0.458824" style="stop-opacity:1; stop-color:#990000"/>
   <stop offset="1" style="stop-opacity:1; stop-color:#DE0000"/>
  </linearGradient>
  <linearGradient id="id1" gradientUnits="userSpaceOnUse" xlink:href="#id0" x1="2101.32" y1="420.23" x2="603.32" y2="2241.31">
  </linearGradient>
 </defs>
 <g id="Слой_x0020_1">
  <metadata id="CorelCorpID_0Corel-Layer"/>
  <polygon class="fil0" points="1352,8 1453,82 1565,25 1652,114 1771,76 1843,178 1967,159 2022,272 2147,273 2183,393 2306,414 2323,539 2441,579 2437,704 2548,764 2524,887 2623,963 2580,1080 2666,1171 2604,1280 2674,1384 2596,1482 2649,1595 2556,1679 2589,1800 2484,1868 2498,1992 2383,2042 2377,2167 2256,2199 2230,2321 2105,2332 2059,2449 1934,2440 1871,2548 1749,2519 1669,2615 1553,2567 1459,2649 1352,2583 1246,2649 1151,2567 1036,2615 956,2519 834,2548 770,2440 645,2449 600,2332 475,2321 449,2199 328,2167 321,2042 207,1992 221,1868 115,1800 149,1679 56,1595 109,1482 30,1384 101,1280 39,1171 125,1080 82,963 181,887 157,764 267,704 264,579 382,539 398,414 522,393 558,273 683,272 738,159 861,178 933,76 1053,114 1140,25 1252,82 "/>
  <path class="fil1" d="M816 648l-162 0 0 683 169 0c107,0 163,-57 163,-162l0 -56c0,-72 -23,-123 -80,-146 47,-22 69,-67 69,-137l0 -25c0,-105 -48,-157 -159,-157l0 0zm-7 376c49,0 69,19 69,83l0 59c0,51 -19,67 -55,67l-62 0 0 -209 48 0zm4 -278c38,0 55,21 55,70l0 38c0,55 -25,72 -65,72l-42 0 0 -180 52 0z"/>
  <polygon id="1" class="fil1" points="1157,746 1342,746 1342,648 1050,648 1050,1331 1342,1331 1342,1233 1157,1233 1157,1033 1304,1033 1304,936 1157,936 "/>
  <path id="2" class="fil1" d="M1395 812c0,195 210,221 210,362 0,49 -22,66 -56,66 -34,0 -55,-17 -55,-66l0 -49 -102 0 0 42c0,109 55,172 160,172 105,0 160,-63 160,-172 0,-195 -210,-221 -210,-362 0,-48 20,-67 54,-67 34,0 54,19 54,67l0 29 101 0 0 -22c0,-109 -54,-172 -158,-172 -104,0 -158,63 -158,172l0 0z"/>
  <polygon id="3" class="fil1" points="1742,746 1854,746 1854,1331 1962,1331 1962,746 2074,746 2074,648 1742,648 "/>
  <path id="4" class="fil1" d="M633 1601c0,134 144,152 144,248 0,34 -15,46 -38,46 -24,0 -38,-12 -38,-46l0 -33 -70 0 0 29c0,75 37,117 110,117 72,0 109,-42 109,-117 0,-134 -143,-152 -143,-249 0,-33 13,-46 36,-46 24,0 37,13 37,46l0 20 70 0 0 -15c0,-75 -37,-118 -109,-118 -71,0 -108,43 -108,118l0 0z"/>
  <polygon id="5" class="fil1" points="966,1556 1093,1556 1093,1489 893,1489 893,1957 1093,1957 1093,1890 966,1890 966,1753 1067,1753 1067,1686 966,1686 "/>
  <polygon id="6" class="fil1" points="1139,1957 1334,1957 1334,1890 1212,1890 1212,1489 1139,1489 "/>
  <polygon id="7" class="fil1" points="1366,1957 1560,1957 1560,1890 1439,1890 1439,1489 1366,1489 "/>
  <polygon id="8" class="fil1" points="1666,1556 1793,1556 1793,1489 1592,1489 1592,1957 1793,1957 1793,1890 1666,1890 1666,1753 1767,1753 1767,1686 1666,1686 "/>
  <path id="9" class="fil1" d="M2068 1957c-8,-17 -8,-34 -8,-57l0 -72c0,-49 -13,-84 -49,-100 32,-15 48,-47 48,-95l0 -37c0,-72 -33,-107 -109,-107l-111 0 0 468 73 0 0 -191 26 0c33,0 48,16 48,60l0 74c0,38 3,45 7,57l75 0zm-120 -401c26,0 37,14 37,48l0 46c0,37 -16,49 -44,49l-29 0 0 -143 36 0z"/>
  <g>
   <path class="fil2 str0" d="M816 605l-162 0 0 682 169 0c107,0 163,-56 163,-161l0 -56c0,-72 -23,-124 -80,-146 47,-23 69,-68 69,-138l0 -24c0,-105 -48,-157 -159,-157l0 0zm-7 375c49,0 69,20 69,83l0 60c0,50 -19,67 -55,67l-62 0 0 -210 48 0zm4 -278c38,0 55,22 55,71l0 38c0,54 -25,72 -65,72l-42 0 0 -181 52 0z"/>
  </g>
  <g>
   <polygon id="1" class="fil2 str0" points="1157,702 1342,702 1342,605 1050,605 1050,1287 1342,1287 1342,1190 1157,1190 1157,990 1304,990 1304,893 1157,893 "/>
  </g>
  <g>
   <path id="2" class="fil2 str0" d="M1395 769c0,195 210,221 210,361 0,49 -22,67 -56,67 -34,0 -55,-18 -55,-67l0 -48 -102 0 0 42c0,109 55,171 160,171 105,0 160,-62 160,-171 0,-195 -210,-222 -210,-362 0,-49 20,-67 54,-67 34,0 54,18 54,67l0 28 101 0 0 -21c0,-109 -54,-172 -158,-172 -104,0 -158,63 -158,172l0 0z"/>
  </g>
  <g>
   <polygon id="3" class="fil2 str0" points="1742,702 1854,702 1854,1287 1962,1287 1962,702 2074,702 2074,605 1742,605 "/>
  </g>
  <g>
   <path id="4" class="fil2 str0" d="M633 1558c0,134 144,152 144,248 0,33 -15,45 -38,45 -24,0 -38,-12 -38,-45l0 -33 -70 0 0 28c0,75 37,118 110,118 72,0 109,-43 109,-118 0,-134 -143,-152 -143,-248 0,-33 13,-46 36,-46 24,0 37,13 37,46l0 19 70 0 0 -14c0,-75 -37,-118 -109,-118 -71,0 -108,43 -108,118l0 0z"/>
  </g>
  <g>
   <polygon id="5" class="fil2 str0" points="966,1512 1093,1512 1093,1445 893,1445 893,1914 1093,1914 1093,1847 966,1847 966,1710 1067,1710 1067,1643 966,1643 "/>
  </g>
  <g>
   <polygon id="6" class="fil2 str0" points="1139,1914 1334,1914 1334,1847 1212,1847 1212,1445 1139,1445 "/>
  </g>
  <g>
   <polygon id="7" class="fil2 str0" points="1366,1914 1560,1914 1560,1847 1439,1847 1439,1445 1366,1445 "/>
  </g>
  <g>
   <polygon id="8" class="fil2 str0" points="1666,1512 1793,1512 1793,1445 1592,1445 1592,1914 1793,1914 1793,1847 1666,1847 1666,1710 1767,1710 1767,1643 1666,1643 "/>
  </g>
  <g>
   <path id="9" class="fil2 str0" d="M2068 1914c-8,-18 -8,-34 -8,-57l0 -72c0,-49 -13,-85 -49,-100 32,-16 48,-47 48,-95l0 -37c0,-72 -33,-108 -109,-108l-111 0 0 469 73 0 0 -191 26 0c33,0 48,16 48,60l0 73c0,38 3,46 7,58l75 0zm-120 -402c26,0 37,15 37,48l0 47c0,37 -16,49 -44,49l-29 0 0 -144 36 0z"/>
  </g>
  <path id="10" class="fil3" d="M816 605l-162 0 0 682 169 0c107,0 163,-56 163,-161l0 -56c0,-72 -23,-124 -80,-146 47,-23 69,-68 69,-138l0 -24c0,-105 -48,-157 -159,-157l0 0zm-7 375c49,0 69,20 69,83l0 60c0,50 -19,67 -55,67l-62 0 0 -210 48 0zm4 -278c38,0 55,22 55,71l0 38c0,54 -25,72 -65,72l-42 0 0 -181 52 0z"/>
  <polygon id="11" class="fil3" points="1157,702 1342,702 1342,605 1050,605 1050,1287 1342,1287 1342,1190 1157,1190 1157,990 1304,990 1304,893 1157,893 "/>
  <path id="12" class="fil3" d="M1395 769c0,195 210,221 210,361 0,49 -22,67 -56,67 -34,0 -55,-18 -55,-67l0 -48 -102 0 0 42c0,109 55,171 160,171 105,0 160,-62 160,-171 0,-195 -210,-222 -210,-362 0,-49 20,-67 54,-67 34,0 54,18 54,67l0 28 101 0 0 -21c0,-109 -54,-172 -158,-172 -104,0 -158,63 -158,172l0 0z"/>
  <polygon id="13" class="fil3" points="1742,702 1854,702 1854,1287 1962,1287 1962,702 2074,702 2074,605 1742,605 "/>
  <path id="14" class="fil3" d="M633 1558c0,134 144,152 144,248 0,33 -15,45 -38,45 -24,0 -38,-12 -38,-45l0 -33 -70 0 0 28c0,75 37,118 110,118 72,0 109,-43 109,-118 0,-134 -143,-152 -143,-248 0,-33 13,-46 36,-46 24,0 37,13 37,46l0 19 70 0 0 -14c0,-75 -37,-118 -109,-118 -71,0 -108,43 -108,118l0 0z"/>
  <polygon id="15" class="fil3" points="966,1512 1093,1512 1093,1445 893,1445 893,1914 1093,1914 1093,1847 966,1847 966,1710 1067,1710 1067,1643 966,1643 "/>
  <polygon id="16" class="fil3" points="1139,1914 1334,1914 1334,1847 1212,1847 1212,1445 1139,1445 "/>
  <polygon id="17" class="fil3" points="1366,1914 1560,1914 1560,1847 1439,1847 1439,1445 1366,1445 "/>
  <polygon id="18" class="fil3" points="1666,1512 1793,1512 1793,1445 1592,1445 1592,1914 1793,1914 1793,1847 1666,1847 1666,1710 1767,1710 1767,1643 1666,1643 "/>
  <path id="19" class="fil3" d="M2068 1914c-8,-18 -8,-34 -8,-57l0 -72c0,-49 -13,-85 -49,-100 32,-16 48,-47 48,-95l0 -37c0,-72 -33,-108 -109,-108l-111 0 0 469 73 0 0 -191 26 0c33,0 48,16 48,60l0 73c0,38 3,46 7,58l75 0zm-120 -402c26,0 37,15 37,48l0 47c0,37 -16,49 -44,49l-29 0 0 -144 36 0z"/>
  <path class="fil4" d="M1352 2510c651,0 1179,-528 1179,-1179 0,-651 -528,-1179 -1179,-1179 -651,0 -1179,528 -1179,1179 0,651 528,1179 1179,1179zm0 -80c608,0 1100,-492 1100,-1099 0,-608 -492,-1100 -1100,-1100 -607,0 -1099,492 -1099,1100 0,607 492,1099 1099,1099z"/>
 </g>
</svg>
