<svg id="Слой_1" data-name="Слой 1" xmlns="http://www.w3.org/2000/svg" height="64px" width="64px" viewBox="0 0 800 429.39"><defs><style>.cls-1{fill-rule:evenodd;}</style></defs><title>oldboy_logo</title><path class="cls-1" d="M509,309.42c7.6,14.72,53.93,12.67,64.3,12.67l10.62,13.63-8.08,14.12c-32,0-51.52-11.34-80.83-16-17.73-2.77-147.07,80.47-171.44,93.74C280,451.3,124.38,536.23,71.42,535a23.45,23.45,0,0,1-10.74-2.53C35.1,520.43,39.45,492,52.48,478.2c3.86-4,6.15-4.58,11.22-6.39L246.11,405c27-11.1,159-63.7,179.28-90.73l-100.14-10.5-.36,43.07-302-40.9L25.33,231l462.8,70.34-13.75,3.14c15.44,31.73-3.86-4.83,34.63,4.95ZM26.3,204v-1.21l.12-6.51c1.33-22.8,8.32-42.23,21.23-58.39q21.54-27,57.43-26.54c26.42.36,46.57,8.69,60.56,25.21s20.87,39.57,20.87,69.13a137.56,137.56,0,0,1-4.34,35.83l-33.3-5.07c2.53-8.81,3.74-19.18,3.74-31.13,0-42.95-15.8-64.67-47.53-64.91-14.48-.24-25.58,5.55-33.42,17-6.51,9.77-10.25,22.44-11.34,38.12-.48,7.36-1.45,20.87-.6,27.39l-33.9-5.07.36-13c0-.24.12-.6.12-.84Zm600.93-41.74a84.71,84.71,0,0,0-17-1.69,76.09,76.09,0,0,0-16,1.69,57.5,57.5,0,0,0-30.76,17.61c-11.7,12.91-17.61,29.56-17.61,50.07,0,21.11,5.55,38,16.89,50.79s27.15,19.06,47.53,19.06c19.91,0,35.59-6.27,47.05-18.94s17.25-29.56,17.25-50.91c0-21.6-5.67-38.49-16.89-50.79a55.24,55.24,0,0,0-30.4-16.89ZM546,135.2a7.76,7.76,0,0,0,3.74-7c0-5.79-4.22-9.53-10.86-9.53h-14v15.2c.48,1,1.09,1.93,1.57,3a50.12,50.12,0,0,1,4.22,15.68h8.93c6.39,0,10.62-3.86,10.62-9.89,0-3.5-1.21-5.55-4.22-7.48Zm-12.79-3.5v-5.55h5.19c1.93,0,3,1.09,3,2.77s-1.09,2.77-3,2.77Zm0,13.39v-5.91h5.55a2.82,2.82,0,0,1,3.14,3c0,1.81-1.21,2.9-3.14,2.9Zm50.19,7.48L571,118.68h-6.39l-12.31,33.9H561l1.69-4.95h10.38l1.57,4.95Zm-12.55-11.94H565l3.14-9Zm42.47,11.94L606,138.46a7.89,7.89,0,0,0,3-2.29,9.3,9.3,0,0,0,2.53-6.64c0-6.27-4.83-10.86-11.58-10.86H586.57v33.9h8.32V140h2.77l6,12.55ZM594.9,133v-6.88h4.71a3.53,3.53,0,0,1,3.62,3.5A3.43,3.43,0,0,1,599.6,133Zm43.55,2.17a7.76,7.76,0,0,0,3.74-7c0-5.79-4.22-9.53-10.86-9.53h-14v33.9h14.72c6.51,0,10.62-3.86,10.62-9.89,0-3.5-1.21-5.55-4.22-7.48Zm-12.79-3.5v-5.55h5.19c1.93,0,3,1.09,3,2.77s-1.09,2.77-3,2.77Zm0,13.39v-5.91h5.67a2.79,2.79,0,0,1,3,3,2.76,2.76,0,0,1-3,2.9Zm45.48,7.48v-7.36h-14.6v-6H669.1v-7.36H656.55v-5.67h14.6v-7.48h-23v33.9Zm32.45,0-7.24-14.12a9,9,0,0,0,3-2.29,9.21,9.21,0,0,0,2.41-6.64c0-6.27-4.83-10.86-11.46-10.86H676.82v33.9h8.32V140H688l5.91,12.55ZM685.14,133v-6.88h4.71a3.46,3.46,0,0,1,3.62,3.5,3.36,3.36,0,0,1-3.62,3.38Zm39.45-5.31,5.31-5.19a13.22,13.22,0,0,0-4.22-2.9,20,20,0,0,0-6.88-1.21c-7.84,0-12.79,4.1-12.79,10.86,0,5.55,3.14,8.81,9.17,9.65l4.1.6c2.05.24,2.9,1.09,2.9,2.9s-1.57,3-4.83,3a14.37,14.37,0,0,1-5.31-1,6.05,6.05,0,0,1-2.29-1.45l-5.31,5.43a13.79,13.79,0,0,0,4.46,3,20,20,0,0,0,7.72,1.45c8.57,0,13.75-4.1,13.75-10.86,0-6-2.9-9.17-9.17-10l-4.1-.6c-1.93-.36-3-1.21-3-2.65,0-1.93,1.69-3.14,4.71-3.14a9,9,0,0,1,3.74.72,4.52,4.52,0,0,1,2.05,1.33Zm36.56,24.85v-33.9h-8.32v13.15H743.9V118.68h-8.32v33.9h8.32V139.19h8.93v13.39Zm31.25-16.89v-3c0-4.95-1.09-8-3.38-10.38a12.47,12.47,0,0,0-9.53-3.86,12,12,0,0,0-9.41,3.86c-2.65,2.77-3.5,5.55-3.5,12.19v2.17c0,4.22,0,8.81,3.5,12.43a13.55,13.55,0,0,0,18.94,0c3.62-3.74,3.38-8.45,3.38-13.39Zm-16.17-8.32a4,4,0,0,1,3.26-1.45,4,4,0,0,1,3.38,1.45c.84,1.21,1.21,3.74,1.21,6.88v2.29c0,4.34-.36,6.27-1.21,7.48a4.62,4.62,0,0,1-3.38,1.45,4.35,4.35,0,0,1-3.26-1.45c-1-1.21-1.33-3.14-1.33-7.48v-2.29c0-3.14.36-5.67,1.33-6.88Zm21.72-8.69v33.9h8.32V140.51h5.07c6.76,0,11.58-4.58,11.58-10.86s-4.83-11-11.58-11ZM806.27,133v-6.88H811a3.53,3.53,0,0,1,3.62,3.5A3.43,3.43,0,0,1,811,133ZM209.8,113.13l31.37-7.48V250.42h-.6l-30.76-4.71Zm56.94,139a101.3,101.3,0,0,1-1.81-19.79q0-31.85,18.46-51.76c12.31-13.39,27.75-20,46.21-20a60.69,60.69,0,0,1,27.87,6.27V113.13l31.25-7.48V272.86l-31.25-4.71v-73c-6.64-5.31-13.63-8-20.87-8-12.55,0-22.2,3.86-29,11.46s-10.13,18.58-10.13,32.82c0,9.77,1.57,17.86,4.95,24.25a22.83,22.83,0,0,0,3.26,4.58h0l-38.37-5.91Zm143.21,24,2.77-162.27c24.73-1.21,42.11-1.81,52-1.81,19.06,0,33.9,4.1,44.64,12.31s16.17,19.79,16.17,34.87c0,14.6-7.72,26.06-23,34.5,22.68,8,34,24.25,34,49.1,0,16.65-6.27,29.92-18.82,39.69-2.65,2.05-7.12,5.91-10.74,8.32l-8.2-1.33L429,279h0l-19.06-2.9ZM445.3,139.91v43.91c4.95.36,10.25.6,15.8.6,21.23,0,31.85-8.08,31.85-24,0-14.12-9.65-21.11-29-21.11-5.19,0-11.34.12-18.7.6Zm0,69.49V270c6.51.48,11.82.84,15.93.84,14.6,0,25.09-2.53,31.61-7.36s9.89-13.15,9.89-24.49c0-10.5-3-18.1-9.17-22.8S476.79,209,461.71,209c-3.26,0-8.69.12-16.41.36Zm133.07,20.51c0,29.44,10.62,44.28,31.85,44.28a27.37,27.37,0,0,0,23.16-11.58C639.06,255,642,244,642,229.91c0-29.2-10.62-43.67-31.73-43.67-9.77,0-17.49,3.74-23.28,11.46s-8.57,18.46-8.57,32.21ZM689.61,349.83h0l-12.06-14.12,12.06-13.63c2.9,0,5.67-.12,8.2-.24A86.73,86.73,0,0,0,709,320.27c6.15-1.93,9.77-4.71,11.7-6.76a17.34,17.34,0,0,0,4-6.27,10.85,10.85,0,0,0,1-5.55c-.6-8-3.86-19.42-10-34.5l-42-104.12h32.57l36.68,92.66,33.3-92.66H808.8L748.6,322l-.36.84-.12.36c-.12.12-13.51,28.23-58.51,26.66ZM449.76,315.57a11.23,11.23,0,0,1,11,11.22,10.94,10.94,0,0,1-11,11,11.25,11.25,0,0,1-11.1-11.22,11,11,0,0,1,11.1-11ZM81.91,489.9a11.23,11.23,0,0,1,11,11.22,10.94,10.94,0,0,1-11,11,11.25,11.25,0,0,1-11.1-11.22,11,11,0,0,1,11.1-11Z" transform="translate(-22.92 -105.65)"/></svg>