<?xml version="1.0" standalone="no"?>
<!DOCTYPE svg PUBLIC "-//W3C//DTD SVG 20010904//EN"
 "http://www.w3.org/TR/2001/REC-SVG-20010904/DTD/svg10.dtd">
<svg version="1.0" xmlns="http://www.w3.org/2000/svg"
 width="528.000000pt" height="528.000000pt" viewBox="0 0 528.000000 528.000000"
 preserveAspectRatio="xMidYMid meet">
<metadata>
Created by potrace 1.11, written by Peter Selinger 2001-2013
</metadata>
<g transform="translate(0.000000,528.000000) scale(0.100000,-0.100000)"
fill="#000000" stroke="none">
<path d="M2154 5040 c-166 -38 -319 -122 -384 -211 -62 -86 -75 -197 -40 -335
28 -109 64 -181 154 -305 84 -118 91 -144 60 -230 -9 -26 -13 -56 -9 -74 23
-109 23 -261 1 -323 -20 -56 -7 -91 57 -149 53 -49 54 -76 3 -71 -26 2 -31 7
-28 26 3 30 -15 25 -42 -11 -24 -33 -16 -54 31 -77 44 -22 64 -61 57 -114 -4
-24 -2 -52 4 -62 8 -15 4 -25 -23 -55 -46 -52 -67 -152 -46 -225 8 -29 6 -35
-38 -76 -99 -96 -161 -135 -297 -190 l-60 -25 -50 28 c-27 16 -59 29 -70 29
-12 0 -148 73 -303 161 -233 133 -281 164 -276 179 7 23 -5 31 -58 35 -23 2
-49 5 -56 7 -8 2 -24 -15 -38 -39 l-23 -41 115 -67 c63 -37 115 -73 115 -79 0
-7 11 -18 24 -24 19 -8 24 -18 23 -39 -2 -24 1 -28 23 -25 16 2 77 -30 187
-95 l162 -98 1 -37 c0 -20 -4 -48 -9 -62 -8 -19 -6 -30 10 -49 10 -14 19 -28
19 -31 0 -3 9 -15 21 -27 16 -16 20 -28 15 -52 -19 -90 -19 -98 4 -129 33 -44
60 -134 60 -198 0 -43 7 -71 30 -117 l31 -61 -31 -51 c-16 -29 -30 -54 -30
-56 0 -3 15 -5 33 -5 l32 -1 -34 -29 c-36 -31 -34 -50 5 -50 32 0 31 -5 -11
-41 -45 -40 -46 -61 -4 -52 21 4 34 1 40 -8 7 -11 12 -12 29 -2 25 16 27 16
34 -2 14 -37 -136 -54 -173 -21 -22 20 -29 80 -12 90 5 4 8 38 7 77 -3 60 1
79 21 117 l24 45 -25 57 c-19 41 -26 75 -26 118 l0 61 -37 8 c-69 13 -93 3
-123 -56 -39 -78 -130 -315 -130 -341 0 -38 32 -75 82 -95 175 -69 192 -78
169 -87 -26 -9 -44 -4 -226 67 -110 43 -120 45 -132 29 -11 -16 -16 -15 -67 6
-56 22 -106 63 -106 85 0 32 -43 147 -65 173 -15 18 -45 35 -83 46 -46 14 -59
22 -55 35 3 13 -7 20 -42 29 -51 14 -97 44 -121 79 -13 21 -6 19 66 -17 45
-23 91 -40 102 -38 15 2 27 21 44 68 14 35 23 69 20 75 -5 15 -111 45 -157 45
-26 0 -30 3 -19 10 24 15 132 12 164 -5 19 -10 33 -12 39 -6 6 6 28 1 60 -16
71 -35 124 -29 211 25 39 25 78 42 95 42 37 0 141 -38 141 -51 0 -5 -43 -118
-96 -250 -52 -133 -94 -242 -92 -244 2 -1 13 -7 24 -13 20 -11 22 -9 28 22 7
35 74 208 123 317 36 79 70 99 134 82 22 -6 39 -8 39 -6 0 15 -37 113 -52 138
-20 33 -24 96 -8 125 8 15 4 30 -21 70 -31 50 -34 76 -18 139 6 20 -257 179
-287 173 -27 -5 -74 37 -74 67 0 11 -9 22 -20 26 -11 3 -20 12 -20 19 0 8 -49
42 -110 76 -121 70 -124 74 -91 147 30 65 56 77 140 63 68 -11 111 -36 111
-64 0 -18 439 -270 516 -296 32 -11 68 -27 80 -34 15 -11 31 -12 58 -6 21 4
40 11 43 14 10 9 -56 156 -97 216 -41 60 -66 75 -138 83 -51 6 -82 25 -118 73
-37 48 -46 144 -18 175 28 31 66 48 125 57 47 6 53 10 61 37 5 17 9 66 8 110
-1 120 21 165 79 165 39 0 61 -35 61 -94 l0 -54 40 -7 c53 -9 88 -38 116 -99
29 -62 30 -96 4 -129 -27 -33 -25 -53 6 -99 17 -23 28 -55 30 -82 3 -44 60
-186 74 -186 21 0 33 35 31 94 -2 48 5 81 28 146 38 103 39 143 6 193 -14 20
-30 37 -34 37 -5 0 -16 18 -25 40 -17 42 -10 78 20 111 12 14 12 21 -1 52 -19
46 -19 80 0 155 13 49 14 79 5 167 -5 58 -12 110 -15 115 -3 5 2 40 11 78 19
80 16 104 -23 150 l-28 33 -60 -26 c-298 -132 -537 -303 -733 -525 -223 -254
-389 -589 -451 -913 -29 -150 -45 -334 -38 -449 4 -54 3 -99 -1 -102 -4 -2
-20 -2 -36 1 l-29 6 6 211 c5 171 10 235 31 335 84 411 268 754 560 1047 185
184 399 332 618 425 77 33 96 45 87 55 -9 11 -25 6 -82 -22 l-72 -35 48 41
c64 56 70 70 52 114 -17 40 -29 43 -79 20 -31 -16 -34 -21 -41 -77 -11 -99
-23 -119 -106 -165 -41 -23 -90 -51 -109 -64 l-35 -23 28 34 c38 46 65 101 73
150 8 52 -1 52 -81 3 l-60 -37 -5 -94 c-5 -89 -7 -94 -35 -114 -17 -12 -58
-46 -93 -75 l-63 -53 27 52 c27 54 44 161 28 172 -5 3 -37 -18 -72 -46 -59
-49 -62 -54 -57 -87 4 -19 8 -60 11 -90 l5 -55 -73 -81 c-40 -45 -74 -81 -75
-80 -1 1 2 20 8 41 12 41 8 149 -5 162 -4 4 -15 -2 -24 -13 -9 -12 -34 -42
-54 -66 l-37 -44 26 -80 26 -79 -60 -91 -59 -91 -1 62 c0 40 -7 74 -20 99
l-20 39 -45 -74 -44 -74 38 -75 39 -75 -30 -62 c-17 -34 -36 -75 -43 -90 -11
-28 -11 -28 -19 18 -8 50 -29 98 -52 117 -12 10 -20 -2 -46 -68 l-32 -81 34
-39 c61 -72 62 -77 35 -180 l-24 -93 -27 55 c-27 54 -62 96 -73 86 -3 -3 -12
-42 -21 -85 l-17 -80 56 -54 57 -54 -9 -55 c-5 -30 -9 -77 -9 -105 l-1 -50
-30 52 c-16 28 -43 61 -59 72 l-29 21 -6 -23 c-3 -12 -6 -52 -6 -88 l0 -65 57
-40 58 -39 5 -75 c3 -41 4 -77 2 -80 -2 -3 -29 9 -61 27 -37 20 -62 29 -71 23
-19 -12 -40 -1 -40 21 0 10 -9 28 -20 39 l-20 20 0 -29 c0 -23 -7 -33 -28 -43
-57 -27 -107 -185 -69 -217 8 -6 38 -24 68 -40 51 -27 55 -31 70 -88 14 -54
55 -130 65 -120 2 2 -3 36 -12 76 -9 40 -14 74 -12 77 5 5 78 -24 78 -31 0 -2
-7 -2 -15 1 -8 4 -15 2 -15 -2 1 -28 41 -158 50 -164 6 -4 36 -13 66 -19 33
-8 58 -20 64 -31 11 -21 59 -150 55 -150 -1 0 -19 7 -38 15 -36 15 -97 21 -97
9 0 -3 15 -38 34 -78 l33 -73 66 -7 c73 -8 70 -6 121 -98 l37 -67 -29 10 c-17
6 -49 9 -71 7 l-42 -3 45 -72 44 -72 -115 -63 c-159 -86 -165 -91 -157 -136
11 -62 64 -180 109 -240 l42 -58 5 -120 c6 -124 29 -220 58 -235 8 -5 50 -22
92 -39 43 -18 105 -50 139 -71 l62 -40 141 70 c309 154 606 232 1006 262 392
30 878 -30 1277 -156 43 -13 80 -24 83 -24 12 -1 186 -67 308 -117 l132 -55
138 8 c75 5 173 6 217 3 44 -4 85 -5 92 -2 27 9 36 282 13 434 l-13 86 77 122
c93 145 176 312 176 351 0 24 -8 33 -52 56 -29 15 -75 37 -103 49 -44 19 -54
30 -84 85 l-34 63 21 37 c15 27 19 40 11 45 -15 9 -42 -26 -73 -93 -26 -56
-30 -59 -70 -43 l-26 9 35 58 c19 32 35 61 35 66 0 4 -39 7 -87 7 -104 0 -388
40 -571 81 -165 36 -187 37 -208 4 -9 -14 -25 -25 -35 -25 -18 0 -18 2 -5 34
7 18 12 45 9 60 -6 30 -2 31 37 11 32 -17 45 -7 35 25 -5 14 1 23 25 35 38 20
55 56 80 178 26 120 25 193 -2 298 -20 80 -21 92 -9 154 15 75 8 189 -15 243
-8 19 -21 80 -30 136 -19 124 -41 205 -61 229 -13 13 -32 17 -93 17 -71 0 -85
4 -158 40 -100 50 -199 146 -243 235 -16 33 -36 98 -45 144 -16 84 -16 84 9
135 13 28 39 96 57 151 36 108 78 199 134 285 22 33 36 67 36 85 0 18 12 54
26 81 15 27 36 67 47 88 12 22 22 56 22 75 1 20 10 72 20 115 15 67 16 89 7
140 -33 177 -226 413 -417 509 -159 80 -475 111 -671 67z m446 -47 c77 -15
202 -62 236 -88 11 -9 -2 -6 -31 6 -150 64 -324 90 -482 72 -175 -20 -274 -77
-330 -191 -27 -54 -28 -63 -28 -197 1 -136 2 -144 40 -254 34 -100 45 -120 93
-172 30 -33 50 -59 44 -59 -5 0 -15 7 -23 16 -7 8 -25 22 -41 30 -37 19 -60
66 -125 259 -49 143 -55 169 -55 245 -1 104 23 167 85 228 120 116 359 157
617 105z m-286 -42 c-61 -17 -147 -62 -160 -82 -3 -6 9 -3 27 6 18 10 60 19
93 21 l61 4 -62 -14 c-56 -13 -103 -31 -103 -40 0 -2 21 2 47 10 25 8 60 14
77 13 26 -1 22 -3 -19 -13 -60 -15 -84 -27 -110 -56 l-20 -22 35 20 c19 12 46
23 60 25 14 3 43 10 65 15 22 6 67 13 100 15 33 2 48 2 33 0 -38 -6 -35 -19 7
-27 54 -10 48 -21 -13 -23 -81 -4 -157 -29 -195 -64 l-32 -30 43 27 c50 32 61
28 30 -12 l-23 -29 35 26 c19 15 46 32 59 39 l24 12 -23 -32 -23 -32 42 27
c54 36 62 27 12 -13 -48 -38 -91 -122 -91 -176 0 -55 -16 -35 -27 34 l-9 55
-17 -49 c-9 -27 -17 -70 -17 -95 -1 -60 -15 -37 -33 51 l-13 63 -9 -45 c-5
-29 -9 -38 -12 -25 -3 11 -9 24 -14 29 -15 16 -10 -116 6 -169 8 -27 12 -51
10 -53 -13 -13 -58 151 -72 263 -4 33 -9 50 -11 37 -2 -15 -9 -22 -18 -18 -9
4 -14 -1 -14 -15 0 -11 -4 -18 -9 -14 -6 3 -12 -19 -14 -52 -2 -32 -4 -2 -3
67 2 114 4 129 28 176 30 56 78 103 138 134 46 24 134 49 170 49 14 0 -2 -8
-36 -18z m-377 -85 c-40 -51 -61 -115 -62 -178 0 -66 -11 -56 -21 18 -7 60 9
98 64 157 45 46 52 48 19 3z m693 -88 c-177 -37 -228 -66 -271 -156 -32 -63
-32 -205 -1 -302 12 -35 20 -66 18 -67 -7 -7 -46 97 -61 159 -20 85 -19 127 5
191 35 94 130 162 250 177 79 10 113 9 60 -2z m80 -54 l25 -14 -29 6 c-16 4
-27 3 -23 -2 3 -5 -17 -10 -43 -10 -150 -5 -263 -107 -259 -235 1 -32 2 -32
10 10 12 64 47 128 82 153 45 32 128 32 159 -1 21 -22 21 -23 3 -16 -11 4 -29
10 -39 13 -17 5 -17 3 2 -16 24 -24 28 -62 11 -94 -10 -19 -12 -19 -30 11 -20
34 -36 43 -19 12 5 -11 10 -30 9 -43 l0 -23 -9 22 c-22 55 -88 50 -131 -10
-16 -22 -29 -46 -29 -52 0 -7 -7 -18 -15 -25 -20 -17 -29 24 -22 105 9 115 71
188 187 219 59 16 119 12 160 -10z m384 -400 c38 -15 7 -19 -124 -16 l-139 3
-72 -37 c-40 -21 -76 -47 -81 -60 -13 -28 0 -50 77 -134 65 -70 75 -103 75
-236 0 -167 -55 -336 -141 -429 -58 -63 -72 -69 -168 -75 -55 -3 -86 -9 -89
-17 -2 -8 6 -13 20 -13 l23 0 -25 -20 c-20 -17 -84 -50 -95 -50 -2 0 12 15 31
34 21 21 34 44 34 59 0 30 -42 67 -76 67 -30 0 -42 -20 -15 -27 12 -3 21 -13
21 -23 0 -16 -9 -18 -72 -17 -40 0 -92 -2 -115 -5 -29 -4 -46 -1 -54 8 -6 8
-19 14 -29 14 -16 0 -17 5 -9 38 11 49 11 132 0 132 -5 0 -12 -25 -16 -55 -3
-30 -10 -55 -14 -55 -14 0 -79 69 -86 90 -4 11 -2 35 4 53 23 70 31 140 20
174 -6 18 -9 41 -7 50 2 11 12 -5 22 -37 10 -30 27 -68 37 -83 20 -27 20 -28
0 -53 -12 -15 -18 -31 -15 -36 21 -33 131 157 119 205 -8 30 -77 97 -100 97
-9 0 -27 -7 -40 -16 -36 -23 -32 0 5 38 26 26 36 29 78 26 41 -3 47 -1 48 17
1 12 -1 14 -3 4 -3 -12 -16 -16 -54 -15 -45 1 -49 3 -44 21 15 53 16 76 7 105
-10 28 -10 30 15 30 25 0 25 1 10 18 -41 45 -3 30 76 -31 l38 -29 82 22 c149
41 175 51 214 81 76 59 127 89 151 89 13 0 54 18 92 40 38 22 86 44 107 49 44
10 253 14 277 5z m53 -106 c30 -25 -8 -131 -53 -148 -15 -6 -29 -9 -31 -6 -2
2 1 32 8 66 11 56 10 64 -4 75 -22 16 -21 22 1 28 22 6 63 -2 79 -15z m-108
-52 c-2 -2 -35 -6 -74 -9 -41 -3 -60 -2 -45 3 25 8 127 13 119 6z m-64 -36
c-11 -5 -33 -8 -50 -8 l-30 0 30 8 c17 4 39 8 50 8 l20 1 -20 -9z m25 -20 c11
-7 -1 -9 -40 -9 -50 2 -52 2 -20 9 19 4 37 8 40 9 3 0 12 -4 20 -9z m-22 -27
c-10 -2 -28 -2 -40 0 -13 2 -5 4 17 4 22 1 32 -1 23 -4z m-971 -83 c-4 -49
-39 -117 -45 -88 -2 10 2 26 7 37 6 11 11 46 11 78 1 54 2 57 16 38 11 -14 14
-34 11 -65z m986 63 c-13 -2 -33 -2 -45 0 -13 2 -3 4 22 4 25 0 35 -2 23 -4z
m45 -20 c-15 -2 -42 -2 -60 0 -18 2 -6 4 27 4 33 0 48 -2 33 -4z m-12 -78 c16
-40 19 -91 4 -100 -6 -4 -10 9 -10 32 0 21 -4 53 -9 71 -13 42 -4 41 15 -3z
m54 -11 c0 -14 -20 -30 -21 -17 0 4 -2 22 -4 38 -4 28 -3 29 11 11 8 -11 14
-25 14 -32z m-94 -57 c4 -25 2 -52 -3 -62 -8 -13 -11 0 -16 51 -3 38 -8 78
-12 89 -3 11 1 8 10 -7 8 -15 18 -47 21 -71z m-44 -72 c0 -97 -34 -225 -72
-275 -16 -21 -15 -11 9 60 45 137 54 185 49 273 -4 58 -2 74 5 57 5 -14 9 -65
9 -115z m-43 20 c1 -116 -42 -268 -94 -330 l-17 -20 7 20 c4 11 23 60 42 109
39 104 58 209 50 281 -3 32 -2 43 3 30 5 -11 9 -51 9 -90z m-869 -90 c12 -36
26 -67 31 -70 5 -4 9 -11 9 -18 0 -25 -28 21 -45 73 -10 30 -20 61 -23 68 -2
6 -2 12 1 12 3 0 15 -29 27 -65z m820 -413 c0 -44 26 -135 56 -194 26 -51 25
-52 -34 -82 -31 -16 -52 -15 -52 3 0 4 -25 54 -56 111 -47 84 -56 110 -56 148
1 25 5 49 9 53 12 12 117 15 125 4 4 -5 8 -25 8 -43z m-187 -51 c-4 -44 0 -77
16 -129 11 -39 21 -79 21 -90 0 -34 -64 -71 -220 -128 -70 -25 -283 -74 -324
-74 -50 0 -69 49 -45 119 15 42 39 53 134 61 87 7 158 34 233 89 37 28 42 36
42 72 0 48 24 99 48 99 13 0 59 19 99 39 0 1 -1 -26 -4 -58z m-426 -54 c110
-3 70 -22 -45 -21 -65 1 -109 6 -132 17 -26 11 -30 16 -15 17 11 0 31 7 44 14
22 12 28 11 51 -5 18 -14 45 -20 97 -22z m258 2 c7 -30 -21 -64 -30 -35 -3 9
-7 23 -10 32 -6 19 15 49 26 37 4 -4 10 -20 14 -34z m-47 -33 c-4 -33 -21 -35
-30 -4 -6 19 -7 18 -5 -7 2 -26 -1 -31 -20 -33 -17 -1 -23 4 -24 21 -1 17 -3
16 -8 -7 -9 -44 -31 -45 -31 -2 0 27 4 36 18 36 9 1 33 9 52 19 40 20 53 14
48 -23z m-377 -38 c1 -20 3 -25 6 -13 9 44 12 46 33 35 27 -14 26 -55 -2 -75
-21 -14 -24 -14 -34 0 -9 13 -13 13 -17 3 -7 -18 -29 12 -22 30 3 8 5 22 5 33
0 35 30 22 31 -13z m249 3 c0 -17 -5 -33 -10 -36 -6 -4 -7 -12 -3 -18 4 -7 0
-6 -10 2 -20 16 -23 67 -4 74 23 10 27 7 27 -22z m-132 -20 c-2 -22 -1 -39 2
-38 3 1 15 -4 28 -11 17 -10 22 -10 22 -1 0 7 2 10 5 7 3 -3 3 -13 -1 -22 -8
-22 -44 -21 -44 2 0 12 -9 18 -26 20 -37 3 -41 7 -36 46 4 31 8 36 29 36 23 0
25 -3 21 -39z m82 21 c0 -46 -60 -71 -68 -29 -6 32 6 47 38 47 22 0 30 -5 30
-18z m200 -2 c0 -5 -5 -10 -11 -10 -5 0 -7 5 -4 10 3 6 8 10 11 10 2 0 4 -4 4
-10z m-40 -24 c0 -2 -7 -9 -15 -16 -12 -10 -15 -10 -15 4 0 9 7 16 15 16 8 0
15 -2 15 -4z m-50 -36 c-18 -11 -24 -6 -16 16 5 14 9 15 19 5 9 -9 9 -14 -3
-21z m-34 3 c-2 -9 -8 -19 -14 -21 -16 -5 -15 25 1 31 6 3 13 6 14 6 1 1 0 -7
-1 -16z m-48 -20 c2 -8 -5 -13 -17 -13 -12 0 -21 6 -21 16 0 18 31 15 38 -3z
m-183 -3 c3 -5 1 -10 -4 -10 -6 0 -11 5 -11 10 0 6 2 10 4 10 3 0 8 -4 11 -10z
m65 -10 c0 -5 -4 -10 -9 -10 -6 0 -13 5 -16 10 -3 6 1 10 9 10 9 0 16 -4 16
-10z m-1072 -335 c163 -93 291 -172 289 -179 -3 -6 -10 -10 -16 -8 -6 1 -107
57 -223 123 -182 105 -214 120 -230 110 -16 -10 -27 -8 -61 12 -169 97 -169
96 -146 138 10 20 11 20 52 -4 23 -13 174 -99 335 -192z m-273 195 c8 -13 -5
-13 -25 0 -13 8 -13 10 2 10 9 0 20 -4 23 -10z m2359 -55 c31 -14 70 -25 87
-25 24 0 30 -4 25 -15 -22 -58 -39 -145 -61 -320 -14 -110 -37 -240 -50 -290
-14 -49 -21 -91 -16 -93 5 -2 7 -12 4 -23 -3 -10 0 -25 6 -33 9 -10 8 -16 -4
-26 -8 -7 -14 -24 -13 -38 2 -20 -2 -27 -21 -32 -26 -6 -41 -30 -19 -30 9 0 9
-3 2 -8 -22 -14 -35 -53 -29 -85 5 -27 0 -40 -29 -79 -20 -26 -36 -51 -36 -55
0 -5 -5 -14 -11 -20 -7 -7 -27 0 -67 27 -72 48 -284 155 -339 170 -38 12 -41
16 -45 50 l-3 37 27 -20 c23 -17 32 -19 52 -9 49 22 42 95 -10 108 -18 5 -32
0 -50 -17 -13 -12 -24 -18 -24 -12 0 10 157 343 166 352 3 3 11 -5 20 -17 9
-14 26 -22 43 -22 20 0 34 -8 46 -26 23 -36 13 -54 -30 -54 -44 0 -51 -16 -31
-65 l16 -38 138 7 c75 4 161 10 190 13 l52 6 0 58 c0 59 0 59 -30 59 -16 0
-30 4 -30 8 0 4 9 47 19 96 l19 87 -21 8 c-12 5 -44 12 -71 15 -42 7 -48 5
-43 -8 9 -24 -2 -19 -25 9 -30 38 -110 27 -123 -17 -5 -14 -12 -17 -33 -12
-15 4 -28 7 -29 8 -1 1 31 37 72 81 91 98 97 126 33 147 l-42 14 42 25 c23 14
40 28 37 31 -3 2 1 5 8 5 22 0 126 66 120 77 -3 5 -1 6 5 2 7 -4 20 -2 29 3
10 6 19 11 19 11 1 0 27 -11 58 -25z m-1989 -255 c127 -72 233 -135 238 -139
4 -4 -1 -15 -10 -24 -17 -15 -33 -6 -248 124 -127 77 -236 144 -244 148 -22
13 -6 44 16 32 10 -5 122 -68 248 -141z m1460 100 c8 0 17 5 20 10 14 23 24 5
44 -79 22 -92 27 -196 12 -220 -12 -18 -34 -9 -138 55 -88 55 -94 74 -22 74
56 0 65 20 13 31 l-29 6 28 13 c27 13 38 40 16 40 -7 0 -27 -10 -46 -21 -19
-12 -36 -19 -38 -17 -2 2 24 35 58 73 44 49 63 64 65 52 2 -9 10 -17 17 -17z
m-693 -145 l57 -28 -32 -39 c-56 -70 -61 -78 -49 -90 6 -6 9 -16 6 -22 -6 -17
180 -135 474 -300 97 -55 121 -76 87 -76 -8 0 -15 -7 -15 -15 0 -8 9 -15 20
-15 16 0 20 -7 20 -34 l0 -33 -42 8 c-24 4 -79 9 -123 10 -76 3 -82 5 -111 36
-17 18 -39 33 -48 33 -9 0 -31 16 -48 36 -27 31 -36 35 -64 29 -28 -5 -32 -3
-27 14 3 13 -10 34 -46 70 -28 28 -51 55 -51 61 0 20 -73 64 -128 76 -31 7
-42 12 -24 10 18 -1 35 1 38 6 11 17 -19 38 -52 38 -54 0 -84 16 -84 45 0 21
-13 34 -66 67 l-66 42 91 42 c50 24 103 52 117 63 23 18 29 19 67 7 23 -7 68
-25 99 -41z m375 -1 l38 -18 -50 -5 c-27 -4 -56 -10 -62 -14 -22 -14 -14 -30
12 -24 25 4 25 3 10 -19 -22 -34 0 -40 40 -10 18 14 40 26 48 26 58 0 -19
-124 -116 -185 l-27 -17 -30 65 c-28 63 -33 81 -45 194 -5 51 -5 52 22 55 27
4 81 -13 160 -48z m100 -14 c3 -11 9 -17 14 -15 4 3 6 12 2 20 -3 10 2 15 16
15 17 0 21 -6 21 -30 0 -28 -22 -50 -49 -50 -14 0 -52 61 -45 72 10 15 36 8
41 -12z m-990 -33 c21 -16 4 -27 -22 -15 -25 11 -30 20 -19 31 7 6 18 2 41
-16z m141 -50 c61 -38 112 -75 112 -83 0 -20 -17 -18 -24 4 -3 9 -34 33 -67
52 -61 34 -164 105 -144 98 6 -1 61 -34 123 -71z m1386 37 c19 -19 20 -36 4
-52 -26 -26 -78 -7 -78 28 0 38 46 53 74 24z m-1427 -48 c104 -62 101 -56 70
-107 -14 -24 -37 -57 -50 -73 l-24 -30 -72 43 c-40 24 -70 45 -67 48 3 3 21
-4 41 -16 42 -25 58 -26 74 -7 14 17 1 32 -52 61 -41 22 -44 27 -22 45 11 9
22 7 54 -11 75 -42 100 3 26 47 -41 23 -53 34 -41 34 3 0 31 -15 63 -34z
m1528 24 c7 -12 -2 -12 -30 0 -19 8 -19 9 2 9 12 1 25 -3 28 -9z m41 -30 c-3
-17 -11 -59 -18 -95 -6 -36 -15 -65 -20 -65 -11 0 -10 14 8 108 9 45 21 82 27
82 5 0 7 -13 3 -30z m-272 4 c34 -34 14 -77 -34 -72 -43 4 -59 39 -30 68 24
24 43 25 64 4z m-1325 -15 c18 -11 31 -22 28 -25 -6 -7 -77 28 -77 38 0 13 12
10 49 -13z m1536 11 c13 -5 14 -9 5 -9 -8 0 -24 4 -35 9 -13 5 -14 9 -5 9 8 0
24 -4 35 -9z m-1679 -26 l24 -17 -25 -43 c-14 -23 -25 -46 -25 -51 0 -4 45
-35 100 -68 55 -33 95 -62 89 -64 -6 -2 -57 28 -112 65 -80 54 -101 74 -99 89
2 11 6 39 9 63 3 23 7 42 9 42 3 0 16 -7 30 -16z m1693 -21 c4 -3 -2 -3 -12 0
-11 4 -30 10 -44 13 -39 10 -24 -19 15 -30 18 -5 32 -13 32 -18 0 -4 -15 -2
-34 6 -19 8 -37 12 -40 8 -13 -12 -5 -21 24 -27 16 -4 32 -11 35 -16 4 -5 -5
-5 -20 1 -33 13 -55 13 -55 0 0 -5 18 -15 40 -21 22 -7 38 -14 36 -17 -3 -2
-19 1 -37 7 -38 13 -60 4 -34 -16 17 -12 16 -13 -13 -13 -30 0 -32 2 -32 34 0
46 16 87 43 108 19 15 25 15 56 2 19 -8 37 -17 40 -21z m-137 21 c3 -3 -1 -19
-9 -36 -13 -26 -17 -28 -25 -14 -14 25 15 69 34 50z m-1432 -96 c0 -12 -5 -10
-44 13 -20 12 -36 25 -36 30 0 5 18 -1 40 -13 22 -13 40 -26 40 -30z m1389 21
c13 -38 14 -79 2 -79 -11 0 -42 91 -35 102 10 16 22 7 33 -23z m-1224 -38 c-7
-32 -29 -55 -62 -65 -30 -10 -29 -4 14 66 29 47 38 56 45 43 5 -9 7 -29 3 -44z
m38 -12 c-3 -10 -12 -24 -21 -31 -13 -11 -14 -10 -4 9 7 12 12 32 12 45 0 17
3 19 9 9 5 -7 6 -22 4 -32z m62 10 c-29 -11 -35 -10 -35 5 0 9 8 12 27 8 25
-5 25 -6 8 -13z m65 -58 c0 -12 -25 -21 -57 -21 -21 0 -24 2 -13 15 13 16 70
21 70 6z m1310 -11 c0 -11 -6 -22 -12 -25 -7 -2 -80 -8 -163 -13 -144 -9 -164
-7 -165 19 0 5 234 35 303 37 31 2 37 -1 37 -18z m-1220 -20 c29 -22 21 -24
-34 -9 -29 8 -36 13 -25 20 20 13 31 11 59 -11z m-346 -11 c-3 -5 -14 -5 -25
1 -26 14 -24 18 6 12 14 -2 22 -8 19 -13z m244 -14 c99 -16 178 -50 201 -86 7
-12 10 -23 7 -26 -13 -13 -93 -23 -203 -23 l-121 0 -21 70 c-12 39 -19 75 -15
81 3 6 18 8 33 5 14 -3 68 -13 119 -21z m-391 -11 c1 -5 -8 -17 -21 -26 l-24
-17 11 29 c11 28 27 35 34 14z m221 -41 c12 -35 5 -45 -31 -50 -26 -4 -75 -32
-57 -33 20 0 -55 -40 -76 -40 -23 0 -92 40 -99 58 -3 7 9 2 26 -12 39 -33 73
-42 105 -27 23 10 24 13 10 27 -19 18 -21 54 -3 54 6 0 32 16 57 35 25 18 48
31 51 27 4 -4 11 -22 17 -39z m-1368 22 c0 -11 -13 -35 -19 -35 -14 1 -43 29
-37 38 5 8 56 5 56 -3z m78 -31 c34 -24 27 -37 -15 -29 -45 8 -47 10 -40 30 8
19 27 19 55 -1z m1019 -26 c-3 -8 -6 -5 -6 6 -1 11 2 17 5 13 3 -3 4 -12 1
-19z m113 -38 c0 -21 -24 -28 -35 -10 -8 14 3 30 21 30 8 0 14 -9 14 -20z
m187 -16 c3 -9 0 -20 -8 -25 -21 -13 -29 -11 -29 9 0 33 26 44 37 16z m262
-46 c-6 -13 -13 -24 -14 -26 -1 -1 -7 9 -13 23 -11 23 -10 25 14 25 22 0 24
-2 13 -22z m199 10 c23 -23 12 -46 -37 -78 -38 -24 -54 -42 -67 -76 -14 -37
-21 -44 -45 -44 -15 0 -34 -3 -43 -6 -12 -5 -16 1 -16 23 0 55 23 142 41 159
33 30 144 45 167 22z m-544 -32 c-9 -15 -19 -25 -21 -22 -3 2 3 16 13 30 9 15
19 25 21 22 3 -2 -3 -16 -13 -30z m290 -36 c-1 -102 -19 -122 -104 -112 l-55
7 -17 65 c-10 36 -16 71 -13 78 3 9 29 12 97 10 l93 -3 -1 -45z m340 -1 c14
-11 26 -27 26 -35 0 -11 18 -14 88 -14 112 0 261 -31 335 -69 32 -17 121 -71
197 -121 126 -83 140 -90 159 -78 18 11 23 11 31 -2 5 -8 7 -25 3 -37 -4 -20
-1 -23 24 -23 34 0 58 -22 68 -62 5 -21 1 -33 -19 -52 -31 -32 -72 -34 -126
-6 -63 32 -146 50 -282 60 -190 14 -275 50 -429 183 -72 61 -82 67 -124 67
-61 0 -125 33 -124 63 1 41 15 60 75 103 32 24 62 44 65 44 4 0 18 -9 33 -21z
m-556 -11 c-2 -13 -11 -24 -20 -26 -21 -4 -24 18 -6 36 19 19 30 14 26 -10z
m22 -79 c0 -21 -7 -23 -29 -10 -12 8 -12 12 -2 25 16 19 31 12 31 -15z m-95
-64 c-16 -13 -27 -26 -25 -29 3 -2 61 -37 130 -76 69 -40 116 -69 106 -66 -24
8 -227 124 -241 138 -7 6 0 18 20 34 17 13 32 24 35 24 3 -1 -8 -12 -25 -25z
m375 -16 c48 -5 68 -13 91 -35 19 -18 40 -28 63 -28 19 -1 33 -3 31 -6 -2 -4
11 -6 28 -6 26 0 45 -12 98 -64 36 -36 81 -77 99 -92 l35 -28 -31 0 c-16 0
-35 -5 -42 -12 -7 -7 -12 -8 -12 -3 0 6 -26 9 -60 7 -33 -2 -58 -7 -55 -12 3
-4 -13 -6 -35 -3 -30 4 -40 2 -40 -8 0 -12 -2 -12 -9 0 -6 9 -18 12 -32 8 -18
-5 -33 4 -71 38 -26 25 -58 50 -70 56 -35 16 -81 95 -89 153 -7 58 5 88 26 59
8 -10 34 -19 75 -24z m-133 -11 c-3 -8 -6 -5 -6 6 -1 11 2 17 5 13 3 -3 4 -12
1 -19z m1407 -99 l89 -120 -13 -40 c-21 -62 -51 -89 -101 -89 -32 0 -45 -6
-61 -25 -19 -25 -42 -31 -72 -19 -24 9 -19 21 10 28 72 19 100 67 77 134 -12
37 -12 45 2 71 8 17 15 37 15 46 0 27 -17 16 -35 -25 -15 -33 -22 -39 -39 -34
-12 4 -21 7 -21 8 -1 0 -6 17 -13 37 -9 27 -10 44 -2 65 11 28 58 84 69 84 3
-1 46 -55 95 -121z m-2628 78 c2 -1 20 -50 40 -107 41 -121 129 -302 198 -409
26 -40 46 -74 44 -76 -2 -1 -13 -7 -25 -14 -28 -14 -45 3 -114 118 -37 62 -47
86 -38 92 14 8 12 12 -42 76 -29 34 -93 186 -91 217 1 10 -8 36 -19 57 -28 57
-26 70 12 59 18 -5 33 -11 35 -13z m1211 -89 c-2 -13 -4 -3 -4 22 0 25 2 35 4
23 2 -13 2 -33 0 -45z m17 -154 c3 -9 6 -31 6 -49 0 -36 -3 -38 -91 -50 -42
-6 -46 -5 -57 20 -14 31 -36 23 -28 -10 6 -25 -8 -35 -50 -35 -18 0 -27 9 -39
37 -8 20 -14 37 -13 38 19 16 84 39 137 50 92 18 128 18 135 -1z m54 -41 c7
-21 7 -33 1 -33 -10 0 -13 7 -24 55 -8 38 8 22 23 -22z m1097 -62 l39 -19 -39
-7 c-218 -40 -390 -88 -618 -176 -87 -33 -145 -49 -176 -49 -49 0 -91 -21
-117 -59 -18 -25 -46 -27 -64 -6 -7 9 -32 20 -57 26 -34 9 -44 17 -49 38 -17
77 -25 90 -60 100 -42 12 -124 -7 -155 -35 -19 -17 -20 -26 -14 -86 6 -61 4
-68 -12 -68 -35 0 -215 -58 -224 -71 -5 -8 -9 -24 -9 -36 0 -14 -6 -23 -15
-23 -8 0 -15 4 -15 9 0 5 -14 14 -32 20 l-31 11 44 38 c24 20 104 94 178 163
l134 127 101 16 c56 8 232 31 391 50 485 59 729 70 800 37z m385 -56 c0 -31 5
-31 42 0 27 23 37 25 77 19 71 -10 256 -72 363 -121 82 -39 95 -48 83 -59 -7
-8 -16 -27 -20 -44 -5 -22 -12 -30 -28 -30 -35 0 -49 14 -42 41 10 38 -11 78
-47 93 -39 16 -172 37 -518 81 -19 2 -52 4 -73 5 -26 0 -37 4 -35 13 6 15 53
24 136 26 60 1 62 0 62 -24z m-1831 -149 c-141 -136 -250 -227 -281 -233 -15
-3 -38 -18 -52 -34 -15 -16 -30 -29 -34 -29 -5 0 -23 20 -42 45 -19 25 -37 45
-40 45 -3 0 -15 6 -25 14 -18 13 -17 15 21 47 21 19 66 59 99 90 48 46 73 61
129 78 89 27 112 27 119 -1 4 -13 13 -32 22 -43 15 -19 15 -17 13 30 l-3 50
75 16 c41 10 80 17 85 18 6 0 -33 -42 -86 -93z m1390 88 c30 -6 31 -8 31 -64
0 -43 -4 -59 -15 -64 -14 -5 -15 -24 -9 -138 4 -73 10 -141 13 -151 4 -10 20
41 39 128 26 114 31 150 21 161 -7 9 -9 32 -4 69 l6 55 52 0 c29 0 63 -3 75
-7 23 -6 24 -9 17 -62 -4 -31 -13 -60 -21 -64 -11 -6 -14 -40 -14 -157 0 -83
4 -150 8 -150 4 0 25 66 46 146 28 108 35 148 26 154 -8 5 -9 25 -4 70 l7 62
36 -6 c20 -3 46 -6 59 -6 17 0 22 -4 19 -17 -3 -10 -8 -39 -12 -64 -4 -33 -11
-48 -24 -52 -20 -5 -51 -101 -51 -159 0 -20 -6 -41 -14 -47 -8 -7 -27 -59 -43
-116 -16 -62 -33 -105 -40 -105 -7 0 -13 -4 -13 -10 0 -5 4 -10 9 -10 4 0 6
-11 3 -26 -4 -23 -8 -25 -46 -22 -38 3 -41 5 -43 33 -1 17 -6 86 -10 155 l-9
125 -32 -132 c-18 -73 -32 -139 -32 -148 0 -11 -11 -15 -44 -15 l-45 0 -5 43
c-3 23 -8 82 -12 132 -3 49 -11 101 -16 115 -6 14 -10 62 -9 107 2 71 0 84
-18 102 -17 17 -21 34 -21 81 l0 60 54 0 c29 0 68 -3 85 -6z m-189 -54 c0 -31
8 -66 20 -90 11 -22 20 -55 20 -75 l0 -36 -72 3 -72 3 -13 45 c-7 25 -25 55
-39 68 -25 22 -32 23 -123 17 -122 -8 -109 2 89 66 190 62 190 62 190 -1z
m780 3 c33 -6 34 -11 19 -81 -7 -36 -16 -52 -33 -60 -17 -8 -26 -24 -36 -71
-7 -33 -10 -72 -8 -86 3 -15 -3 -41 -13 -61 -27 -53 -35 -140 -16 -162 13 -14
14 -26 4 -75 -7 -32 -15 -58 -20 -58 -4 0 -41 5 -83 12 l-76 12 7 46 c9 67 14
78 34 84 19 5 41 77 41 132 0 13 6 26 13 29 9 3 7 8 -5 19 -15 12 -15 16 -3
34 8 11 19 50 26 88 11 64 10 69 -9 84 -19 15 -20 21 -10 75 l10 59 65 -7 c35
-4 77 -9 93 -13z m220 -37 c52 -11 55 -13 52 -39 -5 -50 -27 -102 -42 -102
-23 0 -54 -73 -56 -135 -1 -30 -12 -76 -23 -101 -21 -47 -46 -147 -39 -154 2
-3 19 -6 38 -7 32 -3 35 0 48 37 7 22 15 48 18 59 2 10 5 20 7 22 6 7 62 -14
60 -22 -3 -22 -65 -249 -68 -253 -3 -3 -256 58 -262 64 -2 1 2 28 9 59 8 44
16 60 33 66 27 10 48 75 50 151 0 31 6 63 13 71 6 8 19 45 27 83 16 68 16 70
-4 86 -20 17 -20 18 0 101 10 41 5 40 139 14z m-2629 -86 c-82 -76 -95 -83
-223 -130 -97 -36 -152 -66 -144 -79 6 -9 -51 -37 -59 -29 -2 2 5 23 17 47 23
47 71 86 163 134 64 33 293 126 310 126 6 0 -24 -31 -64 -69z m3069 -29 c16
-11 30 -37 39 -70 12 -46 12 -61 -4 -139 -10 -48 -20 -102 -23 -121 -2 -19
-20 -58 -38 -87 -19 -29 -34 -58 -34 -64 0 -19 -67 -116 -95 -139 -16 -12 -39
-24 -52 -27 -30 -8 -193 42 -193 60 0 39 31 112 52 121 28 12 59 93 60 154 1
28 9 57 23 76 11 18 27 58 35 90 13 53 12 59 -4 70 -15 12 -16 19 -6 55 6 24
15 53 20 66 l9 23 93 -25 c51 -13 104 -33 118 -43z m-1875 49 c-3 -5 -14 -10
-23 -9 -14 0 -13 2 3 9 27 11 27 11 20 0z m1568 -52 c11 -9 19 -35 23 -80 6
-61 4 -72 -21 -120 -32 -61 -42 -70 -66 -57 -10 5 -26 9 -37 9 -27 0 -30 14
-22 94 7 59 12 73 39 98 17 16 31 38 31 49 0 22 27 26 53 7z m-567 -85 l-15
-28 -1 38 c0 21 6 48 13 60 12 21 12 21 15 -10 2 -18 -4 -45 -12 -60z m239 10
c-8 -59 -25 -81 -25 -32 0 45 10 79 22 79 7 0 8 -18 3 -47z m-2785 -203 c13
-27 28 -50 33 -50 21 0 0 -9 -42 -19 -42 -9 -43 -9 -57 25 -19 46 -18 82 4 87
34 9 39 6 62 -43z m-210 -105 c7 -8 8 -15 2 -15 -5 0 -15 7 -22 15 -7 8 -8 15
-2 15 5 0 15 -7 22 -15z"/>
<path d="M2616 4094 c-11 -28 -6 -94 9 -132 23 -54 128 -211 143 -211 22 -2
13 20 -44 101 -70 101 -84 134 -84 203 0 53 -11 72 -24 39z"/>
<path d="M2210 3962 c0 -18 29 -72 38 -72 5 0 17 7 28 16 18 14 18 15 -4 4
-28 -14 -27 -14 -46 30 -8 19 -15 29 -16 22z"/>
<path d="M2408 3923 c6 -2 18 -2 25 0 6 3 1 5 -13 5 -14 0 -19 -2 -12 -5z"/>
<path d="M2460 3910 c8 -5 20 -10 25 -10 6 0 3 5 -5 10 -8 5 -19 10 -25 10 -5
0 -3 -5 5 -10z"/>
<path d="M2268 3854 c-36 -19 -37 -38 -2 -30 14 4 24 3 22 -1 -1 -5 -16 -41
-32 -81 l-29 -72 18 -41 c26 -57 48 -68 135 -70 180 -5 227 114 98 244 -62 61
-151 83 -210 51z m76 -22 c2 -4 -4 -32 -14 -62 -23 -67 -25 -100 -5 -146 14
-34 14 -35 -8 -32 -13 2 -30 17 -42 40 l-19 36 34 86 c33 82 43 96 54 78z"/>
<path d="M2090 3595 c-11 -13 -11 -29 -2 -79 9 -46 9 -71 1 -95 -16 -46 -7
-57 51 -65 70 -9 80 1 80 78 -1 118 -82 219 -130 161z m63 -33 c24 -26 38 -71
39 -123 1 -53 -9 -76 -25 -60 -6 6 -20 11 -31 11 -20 0 -21 6 -22 95 -2 99 6
114 39 77z"/>
<path d="M3114 2162 c3 -5 0 -26 -5 -48 l-11 -38 -18 34 c-10 19 -16 38 -13
42 2 5 -6 8 -19 8 -18 0 -23 -6 -24 -29 -1 -16 -4 -37 -8 -47 -6 -16 -10 -12
-21 20 -8 22 -12 43 -9 48 3 4 -9 8 -26 8 -28 0 -30 -2 -16 -15 8 -9 23 -40
32 -70 10 -30 21 -55 25 -55 4 0 16 23 26 50 l19 51 24 -51 c13 -27 26 -50 30
-50 4 0 13 26 20 58 7 31 16 65 21 75 8 14 6 17 -11 17 -12 0 -19 -4 -16 -8z"/>
<path d="M2825 2143 c16 -41 18 -115 4 -124 -9 -6 1 -9 31 -9 26 0 51 5 58 12
16 16 15 43 -3 58 -11 9 -12 16 -3 30 18 28 -6 50 -54 50 -34 0 -39 -3 -33
-17z m65 -23 c0 -11 -7 -20 -15 -20 -8 0 -15 9 -15 20 0 11 7 20 15 20 8 0 15
-9 15 -20z m9 -58 c7 -13 6 -23 -1 -30 -19 -19 -28 -14 -28 18 0 34 14 39 29
12z"/>
<path d="M2930 2515 c-11 -13 -11 -19 3 -32 21 -21 49 -9 45 19 -4 28 -30 35
-48 13z m38 -16 c-2 -6 -8 -10 -13 -10 -5 0 -11 4 -13 10 -2 6 4 11 13 11 9 0
15 -5 13 -11z"/>
<path d="M2794 2455 c-7 -18 12 -45 32 -45 16 0 33 30 27 48 -7 17 -52 15 -59
-3z m43 -17 c-3 -8 -6 -5 -6 6 -1 11 2 17 5 13 3 -3 4 -12 1 -19z"/>
<path d="M2312 1829 c8 -24 100 -88 183 -128 89 -43 181 -71 360 -111 192 -44
179 -24 -67 101 -124 63 -186 88 -272 109 -153 39 -210 47 -204 29z m206 -74
c32 -5 42 -11 42 -26 0 -10 -2 -19 -5 -19 -12 0 -77 30 -98 45 -20 15 -20 16
-2 12 11 -3 39 -9 63 -12z m128 -35 c26 -10 124 -70 124 -76 0 -2 -21 3 -47
11 -27 7 -67 19 -90 25 -32 8 -43 16 -43 30 0 22 16 25 56 10z"/>
<path d="M2910 719 c0 -5 5 -7 10 -4 6 3 10 8 10 11 0 2 -4 4 -10 4 -5 0 -10
-5 -10 -11z"/>
<path d="M4081 976 c-23 -58 -42 -137 -40 -159 4 -30 -28 -77 -55 -78 -17 -1
-17 -2 -3 -6 9 -2 17 -5 17 -6 0 -1 -9 -30 -19 -65 -17 -53 -17 -64 -5 -69 37
-14 77 39 95 127 7 30 23 78 36 107 33 70 36 140 6 160 -21 14 -23 14 -32 -11z"/>
<path d="M4005 890 c3 -5 8 -10 11 -10 2 0 4 5 4 10 0 6 -5 10 -11 10 -5 0 -7
-4 -4 -10z"/>
<path d="M3945 780 c-3 -5 -1 -10 4 -10 6 0 11 5 11 10 0 6 -2 10 -4 10 -3 0
-8 -4 -11 -10z"/>
<path d="M1656 4418 c-9 -12 -16 -26 -16 -30 0 -6 35 5 58 18 6 3 -11 34 -19
34 -4 0 -15 -10 -23 -22z"/>
<path d="M3362 4413 c-7 -3 22 -21 65 -39 64 -29 83 -33 108 -26 30 9 30 9
-38 41 -65 29 -105 36 -135 24z"/>
<path d="M3295 4367 c-26 -69 -33 -109 -20 -113 30 -12 185 32 185 51 0 3 -26
17 -57 31 -96 43 -103 45 -108 31z"/>
<path d="M1414 4320 c-43 -24 -100 -87 -90 -97 5 -6 139 76 148 89 10 16 10
38 1 38 -5 0 -31 -13 -59 -30z"/>
<path d="M3743 4201 c62 -41 80 -48 102 -43 27 8 26 9 -33 50 -48 33 -69 42
-102 42 l-43 0 76 -49z"/>
<path d="M3272 4217 c2 -14 24 -29 74 -51 177 -78 359 -193 491 -311 47 -42
67 -54 78 -47 13 7 -5 25 -82 87 -135 108 -264 190 -426 272 -118 60 -138 67
-135 50z"/>
<path d="M3538 4187 c-38 -18 -68 -34 -68 -38 0 -9 91 -38 142 -45 48 -6 148
11 148 26 0 11 -124 90 -141 89 -8 0 -44 -15 -81 -32z"/>
<path d="M1130 4134 c-40 -31 -97 -111 -86 -121 2 -3 34 19 70 49 52 42 66 59
66 81 0 15 -1 27 -2 26 -2 0 -23 -16 -48 -35z"/>
<path d="M3210 4079 c-20 -35 -38 -82 -41 -110 -5 -33 -21 -69 -53 -117 -56
-84 -87 -152 -133 -292 -19 -58 -41 -117 -49 -132 -18 -35 -18 -63 2 -93 9
-14 14 -35 10 -48 -12 -51 92 -201 187 -269 l29 -21 84 84 c81 80 84 86 79
119 -11 67 77 157 142 145 20 -3 54 2 92 15 33 11 80 20 105 20 l44 0 -5 38
c-12 88 35 223 106 304 l39 44 -81 66 c-121 97 -257 183 -392 249 -66 33 -122
59 -125 59 -3 0 -21 -28 -40 -61z"/>
<path d="M4019 3990 c49 -46 71 -60 94 -60 l30 0 -24 26 c-44 47 -94 81 -129
87 l-35 6 64 -59z"/>
<path d="M3835 4010 c-27 -10 -60 -19 -72 -19 -32 -1 -28 -13 10 -35 80 -46
189 -68 241 -47 16 6 10 15 -45 64 -35 31 -68 57 -74 56 -5 0 -32 -9 -60 -19z"/>
<path d="M859 3883 c-40 -43 -70 -105 -57 -118 2 -3 28 22 57 55 40 46 52 67
49 86 -3 26 -4 26 -49 -23z"/>
<path d="M4003 3786 c-96 -31 -188 -119 -223 -214 -18 -46 -21 -73 -18 -142 3
-47 8 -93 13 -103 7 -17 4 -18 -31 -10 -65 13 -140 7 -185 -15 -30 -15 -47
-18 -60 -12 -32 18 -65 11 -93 -19 -24 -25 -28 -35 -22 -63 6 -31 1 -37 -90
-129 -80 -80 -93 -97 -78 -103 14 -6 40 14 113 88 52 53 99 96 105 96 6 0 -34
-45 -89 -100 -98 -98 -114 -122 -52 -78 22 16 51 23 108 27 53 4 83 12 96 24
29 26 44 22 33 -9 -9 -23 -7 -26 23 -38 17 -8 51 -20 75 -27 61 -18 112 -76
112 -129 0 -29 -5 -43 -17 -47 -9 -4 -63 9 -120 28 -57 20 -103 31 -103 25 0
-6 8 -46 17 -89 15 -71 20 -80 45 -89 34 -12 34 -15 4 -47 -19 -21 -22 -31
-15 -50 l9 -23 40 36 c55 50 63 45 12 -7 -39 -39 -55 -77 -33 -77 5 0 66 59
135 132 69 73 129 129 133 124 4 -4 -54 -69 -130 -144 -97 -95 -137 -142 -135
-156 2 -14 36 15 141 124 123 127 141 142 165 137 32 -6 88 25 97 54 4 11 1
34 -5 50 -10 23 -9 36 4 69 18 46 22 164 6 205 -10 26 -10 26 22 18 18 -4 69
-8 113 -8 68 0 89 4 139 29 76 37 135 96 172 172 26 52 29 70 29 149 0 76 -4
99 -27 146 -36 79 -89 133 -166 171 -56 28 -79 33 -147 35 -46 2 -97 -3 -122
-11z m254 -47 c123 -59 188 -172 181 -310 -7 -125 -72 -225 -183 -280 -42 -20
-65 -24 -140 -24 -93 0 -155 16 -155 41 0 11 7 11 40 -1 148 -52 287 -5 371
127 30 46 34 62 37 128 2 41 -1 86 -7 100 l-10 25 -1 -30 c-2 -78 -79 -173
-148 -182 -64 -9 -85 2 -176 86 -47 44 -108 92 -135 107 -28 14 -52 32 -55 40
-6 16 23 54 76 95 40 32 41 33 57 13 33 -41 64 -54 124 -54 53 0 62 3 87 30
29 31 58 38 78 18 6 -6 14 -9 17 -6 4 3 -20 22 -52 41 -32 20 -59 34 -61 32
-2 -2 3 -13 10 -24 38 -61 -84 -105 -157 -57 -27 18 -33 54 -13 74 9 9 5 10
-18 3 -81 -23 -144 -77 -180 -156 -28 -60 -32 -164 -9 -240 16 -53 13 -67 -10
-44 -22 22 -48 137 -41 183 17 109 77 204 160 255 91 57 209 60 313 10z m-523
-449 c21 -4 43 -15 47 -22 5 -7 9 -10 9 -5 0 14 59 -23 96 -61 61 -62 88 -126
88 -207 -1 -44 -7 -83 -17 -105 l-17 -35 5 35 c14 93 17 142 9 177 l-8 38 -5
-45 c-5 -40 -9 -45 -33 -48 -22 -3 -50 18 -157 113 -72 65 -128 121 -125 126
10 18 39 9 67 -21 34 -35 69 -39 111 -11 28 19 28 19 7 30 -18 10 -21 9 -21
-9 0 -20 -13 -25 -55 -20 -31 3 -47 21 -42 47 2 13 1 23 -3 23 -14 0 -105 -19
-125 -26 -14 -5 -17 -4 -10 4 25 26 113 38 179 22z m-228 -36 c60 -41 213
-167 275 -226 73 -71 179 -214 179 -243 0 -12 -6 -28 -14 -34 -11 -9 -25 4
-72 71 -75 107 -206 237 -344 339 -105 78 -110 83 -94 100 22 24 24 24 70 -7z
m334 -454 c0 -13 -60 -63 -67 -57 -4 4 -1 13 5 19 18 18 14 59 -8 96 -11 18
-20 36 -20 40 1 8 90 -89 90 -98z"/>
<path d="M633 3601 c-19 -29 -34 -68 -38 -97 l-6 -49 48 75 c33 50 48 82 45
97 -2 13 -7 23 -11 23 -3 0 -20 -22 -38 -49z"/>
<path d="M1510 3465 c-6 -15 -9 -57 -9 -93 4 -129 -2 -158 -30 -174 -14 -9
-47 -18 -74 -21 -74 -10 -107 -31 -107 -70 0 -76 63 -137 141 -137 21 0 50
-10 70 -23 47 -31 110 -125 143 -213 16 -41 33 -77 39 -81 12 -7 5 27 -14 74
-11 27 -11 39 1 70 22 62 3 199 -40 283 -25 49 -25 50 5 50 19 0 25 -5 25 -22
0 -13 14 -45 30 -73 17 -29 30 -64 30 -84 0 -35 69 -211 82 -211 15 0 8 26
-32 110 -22 47 -40 100 -40 119 0 21 -10 50 -26 72 -33 48 -35 95 -6 135 20
26 21 33 11 64 -26 74 -34 80 -141 104 -27 6 -28 9 -28 71 0 69 -14 92 -30 50z
m88 -141 c32 -9 65 -25 75 -36 25 -29 21 -71 -9 -107 -54 -65 -134 -25 -147
74 -6 42 4 85 19 85 3 0 31 -7 62 -16z m-97 -164 c-2 -8 -7 -44 -10 -79 -8
-74 -24 -91 -84 -91 -79 0 -127 92 -75 147 13 14 34 23 52 24 17 0 40 4 51 9
31 14 71 8 66 -10z m125 -105 c23 -49 48 -185 33 -185 -4 0 -36 36 -72 80 -72
88 -91 145 -68 197 l12 26 35 -34 c19 -19 46 -56 60 -84z m-106 -45 c0 -6 19
-32 43 -58 24 -26 53 -61 65 -79 23 -32 29 -73 12 -73 -5 0 -10 3 -10 8 0 16
-90 126 -123 149 -33 23 -34 26 -19 43 19 21 32 25 32 10z"/>
<path d="M1560 3298 c-31 -16 -37 -55 -15 -97 36 -70 135 -38 135 44 0 44 -74
76 -120 53z m98 -26 c6 -9 12 -23 12 -33 0 -27 -39 -69 -65 -69 -42 0 -80 71
-57 106 17 27 87 24 110 -4z"/>
<path d="M1336 3128 c-24 -34 -20 -71 12 -101 54 -52 132 -28 132 40 0 67
-108 112 -144 61z m108 -9 c33 -26 37 -83 7 -99 -36 -19 -78 -12 -100 16 -56
71 21 139 93 83z"/>
<path d="M4518 3380 c-3 -23 0 -31 15 -36 10 -3 21 -4 23 -1 5 5 -23 67 -30
67 -2 0 -6 -13 -8 -30z"/>
<path d="M461 3299 c-12 -29 -21 -72 -20 -98 l1 -46 34 73 c27 58 32 77 24 97
-5 14 -11 25 -13 25 -3 0 -14 -23 -26 -51z"/>
<path d="M4430 3189 c-17 -24 -20 -36 -13 -48 19 -30 81 -72 127 -86 54 -16
53 -22 15 80 -26 68 -29 71 -70 79 -31 5 -38 3 -59 -25z"/>
<path d="M4593 3175 c28 -106 62 -165 94 -165 22 0 -25 111 -64 150 -27 26
-34 30 -30 15z"/>
<path d="M4385 3139 c-3 -8 6 -41 20 -73 32 -73 91 -266 101 -331 6 -45 30
-94 45 -95 5 0 -5 51 -36 180 -5 20 0 17 23 -16 32 -44 73 -77 116 -94 31 -11
30 -16 8 84 -18 78 -18 79 -57 93 -103 34 -124 45 -130 66 -14 47 -67 183 -76
191 -5 6 -11 3 -14 -5z"/>
<path d="M4255 3064 c-41 -16 -82 -23 -130 -23 l-70 -1 3 -42 c2 -24 -5 -71
-16 -105 -13 -41 -18 -78 -15 -107 5 -43 3 -48 -35 -86 -34 -35 -46 -40 -84
-40 -45 0 -46 -1 -161 -124 -64 -68 -114 -125 -112 -128 3 -3 -6 -15 -20 -28
-14 -13 -25 -31 -25 -40 0 -8 -6 -39 -14 -68 -7 -29 -9 -52 -5 -52 5 0 57 30
116 67 344 213 717 433 734 433 10 0 19 5 19 11 0 39 -107 360 -119 358 -3 -1
-33 -12 -66 -25z"/>
<path d="M336 2970 c-16 -53 -13 -174 3 -153 4 4 15 40 25 80 15 64 16 75 3
100 l-15 27 -16 -54z"/>
<path d="M4700 2839 c0 -2 7 -40 15 -83 14 -71 32 -104 56 -106 9 0 -15 121
-29 146 -10 19 -42 51 -42 43z"/>
<path d="M1707 2764 c-13 -13 -7 -52 9 -58 22 -9 46 13 42 38 -3 21 -37 34
-51 20z"/>
<path d="M4340 2631 c-47 -26 -184 -108 -305 -181 -121 -73 -273 -165 -337
-203 -65 -38 -118 -76 -118 -83 0 -19 6 -18 53 15 23 16 128 80 232 143 105
63 273 165 373 227 131 79 189 110 203 106 19 -6 84 -87 108 -132 10 -20 7
-27 -21 -57 -18 -19 -184 -127 -368 -239 -375 -228 -390 -237 -421 -237 -21 0
-63 38 -106 95 l-23 30 12 -29 c10 -23 10 -30 0 -34 -14 -4 -16 -32 -2 -32 5
0 24 -13 42 -28 47 -41 64 -45 111 -24 85 38 750 452 780 485 29 33 21 74 -28
143 -42 58 -70 84 -92 84 -5 0 -47 -22 -93 -49z"/>
<path d="M267 2630 c-11 -51 -7 -112 7 -145 l13 -30 6 35 c16 98 16 125 -2
149 l-18 24 -6 -33z"/>
<path d="M4225 2524 c-93 -58 -263 -162 -377 -230 -114 -69 -211 -130 -214
-135 -6 -10 55 -113 63 -105 2 2 -3 21 -11 41 -9 21 -16 43 -16 50 0 7 164
115 365 240 201 125 368 231 371 236 12 19 -17 4 -181 -97z"/>
<path d="M4580 2591 c0 -5 4 -12 10 -16 17 -11 29 -75 19 -102 -8 -22 -5 -31
18 -55 15 -17 40 -36 56 -44 l27 -15 0 59 c0 103 -5 113 -71 150 -32 18 -59
28 -59 23z"/>
<path d="M4375 2548 c-29 -16 -29 -16 -12 -32 8 -9 17 -21 20 -28 3 -9 12 -6
28 10 19 17 21 26 13 39 -14 22 -25 25 -49 11z m33 -26 c6 -18 -15 -14 -22 4
-4 10 -1 14 6 12 6 -2 14 -10 16 -16z"/>
<path d="M4300 2500 c-12 -8 -12 -11 3 -28 9 -10 14 -22 10 -25 -15 -15 17 -6
38 11 15 13 19 21 11 26 -7 4 -12 2 -12 -3 0 -19 -20 -12 -28 9 -5 14 -11 17
-22 10z"/>
<path d="M4750 2419 c0 -79 2 -87 26 -110 l26 -24 -3 75 c-3 56 -10 84 -26
110 l-23 35 0 -86z"/>
<path d="M4250 2470 c-9 -6 -10 -10 -3 -10 6 0 15 -11 20 -25 5 -16 12 -22 20
-17 10 7 10 14 0 35 -13 30 -16 31 -37 17z"/>
<path d="M4205 2444 c-12 -9 -19 -24 -17 -37 2 -20 1 -20 -11 -5 -8 10 -18 13
-26 9 -9 -6 -4 -14 18 -30 27 -19 32 -20 37 -7 3 9 12 16 20 16 15 0 19 37 6
57 -5 8 -12 7 -27 -3z m25 -25 c0 -6 -4 -7 -10 -4 -5 3 -10 11 -10 16 0 6 5 7
10 4 6 -3 10 -11 10 -16z"/>
<path d="M4557 2403 c-4 -3 -7 -53 -7 -110 0 -148 -30 -388 -57 -459 -4 -11 9
-14 74 -14 44 0 83 3 86 7 4 3 -18 33 -49 65 -52 55 -56 62 -51 96 3 20 9 66
13 101 l7 64 23 -44 c22 -43 79 -107 88 -98 3 2 9 41 13 86 l9 82 -60 48 -61
48 -3 68 c-3 62 -9 77 -25 60z"/>
<path d="M4087 2349 c-13 -8 -14 -13 -5 -28 6 -11 18 -17 26 -14 11 5 11 7 0
14 -11 8 -11 10 1 18 19 12 -1 21 -22 10z"/>
<path d="M4460 2337 c-63 -58 -669 -424 -716 -433 -36 -7 -77 12 -102 48 -7
10 -17 18 -22 18 -9 0 -26 -108 -17 -116 18 -19 519 -47 688 -38 l136 6 16 87
c25 133 39 268 35 359 -3 73 -5 81 -18 69z"/>
<path d="M4024 2309 c-9 -15 21 -43 36 -34 8 5 6 11 -7 21 -16 13 -16 14 0 8
9 -3 17 -1 17 5 0 14 -37 14 -46 0z"/>
<path d="M3967 2263 c17 -25 21 -27 42 -14 23 15 5 40 -28 39 -29 -1 -29 -2
-14 -25z m33 2 c0 -8 -2 -15 -4 -15 -2 0 -6 7 -10 15 -3 8 -1 15 4 15 6 0 10
-7 10 -15z"/>
<path d="M3922 2247 c-7 -8 -6 -18 4 -31 8 -11 14 -18 15 -15 9 60 4 74 -19
46z"/>
<path d="M3855 2210 c-3 -5 2 -10 12 -11 10 0 13 -3 6 -6 -17 -6 -16 -23 1
-23 22 0 38 24 24 38 -15 15 -35 15 -43 2z"/>
<path d="M3786 2185 c-11 -8 -15 -15 -9 -15 6 0 15 -12 20 -26 l9 -26 24 20
c20 17 23 24 14 39 -15 24 -34 26 -58 8z m34 -5 c0 -5 -5 -10 -11 -10 -5 0 -7
5 -4 10 3 6 8 10 11 10 2 0 4 -4 4 -10z"/>
<path d="M4747 2120 c-3 -8 -8 -48 -12 -87 -5 -55 -3 -78 8 -93 18 -25 22 -16
32 61 6 55 -16 152 -28 119z"/>
<path d="M3580 1786 c0 -9 4 -16 8 -16 4 0 89 -7 187 -16 140 -12 287 -15 660
-12 530 3 528 3 554 -60 15 -35 0 -111 -25 -129 -10 -7 -14 -13 -8 -13 5 0 0
-7 -10 -15 -11 -8 -25 -15 -30 -15 -6 1 0 8 14 16 16 10 18 13 5 8 -43 -15
-339 -33 -515 -31 -159 1 -165 2 -45 4 189 3 481 22 527 34 20 5 40 14 44 20
4 8 1 8 -13 0 -59 -31 -620 -42 -884 -16 -153 14 -337 43 -457 70 -62 15 -63
15 -89 -10 -15 -13 -24 -27 -21 -31 10 -10 220 -53 393 -81 134 -22 202 -26
420 -30 317 -5 619 14 660 41 59 39 84 159 44 210 -41 52 -27 51 -599 51 -502
1 -591 4 -777 31 -35 5 -43 3 -43 -10z m578 -273 c-10 -2 -28 -2 -40 0 -13 2
-5 4 17 4 22 1 32 -1 23 -4z m-50 -20 c-10 -2 -28 -2 -40 0 -13 2 -5 4 17 4
22 1 32 -1 23 -4z"/>
<path d="M3550 1659 c0 -5 11 -9 25 -9 14 0 25 2 25 4 0 2 -11 6 -25 8 -14 3
-25 1 -25 -3z"/>
<path d="M3628 1643 c7 -3 16 -2 19 1 4 3 -2 6 -13 5 -11 0 -14 -3 -6 -6z"/>
<path d="M3678 1633 c7 -3 16 -2 19 1 4 3 -2 6 -13 5 -11 0 -14 -3 -6 -6z"/>
<path d="M3728 1623 c7 -3 16 -2 19 1 4 3 -2 6 -13 5 -11 0 -14 -3 -6 -6z"/>
<path d="M3788 1613 c7 -3 16 -2 19 1 4 3 -2 6 -13 5 -11 0 -14 -3 -6 -6z"/>
<path d="M3848 1603 c7 -3 16 -2 19 1 4 3 -2 6 -13 5 -11 0 -14 -3 -6 -6z"/>
<path d="M3938 1593 c12 -2 30 -2 40 0 9 3 -1 5 -23 4 -22 0 -30 -2 -17 -4z"/>
<path d="M386 1568 c13 -43 42 -93 67 -117 l26 -23 -28 72 c-26 66 -43 89 -64
90 -5 0 -5 -10 -1 -22z"/>
<path d="M4023 1583 c15 -2 37 -2 50 0 12 2 0 4 -28 4 -27 0 -38 -2 -22 -4z"/>
<path d="M4165 1570 c76 -10 514 -14 523 -5 3 3 -87 5 -200 5 -113 0 -247 2
-299 4 -91 5 -92 5 -24 -4z"/>
<path d="M4440 1397 c0 -8 9 -22 19 -31 19 -17 20 -17 36 13 l16 31 -36 0
c-23 0 -35 -5 -35 -13z"/>
<path d="M4526 1347 c-20 -48 -25 -69 -18 -88 9 -23 10 -22 34 26 14 28 28 67
32 88 11 61 -17 46 -48 -26z"/>
<path d="M520 1252 c0 -31 110 -155 125 -141 5 6 -72 131 -87 140 -17 11 -38
11 -38 1z"/>
</g>
</svg>
